<?xml version="1.0" encoding="utf-8"?>
<!-- Generator: Adobe Illustrator 24.0.2, SVG Export Plug-In . SVG Version: 6.00 Build 0)  -->
<svg version="1.1" id="Layer_1" xmlns="http://www.w3.org/2000/svg" xmlns:xlink="http://www.w3.org/1999/xlink" x="0px" y="0px"
	 viewBox="0 0 23 23" style="enable-background:new 0 0 23 23;" xml:space="preserve">
<style type="text/css">
	.st0{fill:#22BF9A;stroke:#22BF9A;stroke-miterlimit:10;}
</style>
<g id="user_3_" transform="translate(0 0)">
	<path id="Path_477" class="st0" d="M11.5,0.6c-6,0-10.9,4.9-10.9,10.9s4.9,10.9,10.9,10.9c0.3,0,0.7,0,1,0c0.3,0,0.6-0.1,0.9-0.1
		l0.1,0c5.9-1.1,9.8-6.8,8.7-12.7C21.3,4.3,16.8,0.6,11.5,0.6z M10.6,21.7L10.6,21.7c-0.3,0-0.6-0.1-0.9-0.1l0,0
		c-0.3,0-0.5-0.1-0.8-0.2l-0.1,0c-0.3-0.1-0.5-0.2-0.8-0.2l-0.1,0c-0.2-0.1-0.5-0.2-0.7-0.3l-0.1,0c-0.2-0.1-0.5-0.2-0.7-0.4
		l-0.1-0.1c-0.2-0.1-0.4-0.3-0.7-0.4l-0.1-0.1c-0.2-0.1-0.4-0.3-0.6-0.5l-0.1,0v-3.1c0-2.2,1.8-4,4-4H14c2.2,0,4,1.8,4,4v3.1l0,0
		c-0.2,0.2-0.4,0.3-0.6,0.5l-0.1,0.1c-0.2,0.2-0.4,0.3-0.7,0.4l-0.1,0c-0.2,0.1-0.5,0.3-0.7,0.4l-0.1,0c-0.2,0.1-0.5,0.2-0.7,0.3
		l-0.1,0c-0.3,0.1-0.5,0.2-0.8,0.2l-0.1,0c-0.3,0.1-0.5,0.1-0.8,0.2l0,0c-0.3,0-0.6,0.1-0.8,0.1h0c-0.3,0-0.6,0-0.9,0
		C11.2,21.7,10.9,21.7,10.6,21.7L10.6,21.7z M18.8,18.6v-2.4c0-2.6-2.1-4.7-4.7-4.7H9c-2.6,0-4.7,2.1-4.7,4.7v2.4
		c-3.9-4-3.9-10.5,0.1-14.4s10.5-3.9,14.4,0.1C22.7,8.3,22.7,14.7,18.8,18.6z"/>
	<path id="Path_478" class="st0" d="M11.5,3.5c-2,0-3.6,1.6-3.6,3.6s1.6,3.6,3.6,3.6c2,0,3.6-1.6,3.6-3.6v0
		C15.1,5.1,13.5,3.5,11.5,3.5z M11.5,10c-1.6,0-2.9-1.3-2.9-2.9s1.3-2.9,2.9-2.9c1.6,0,2.9,1.3,2.9,2.9S13.1,10,11.5,10L11.5,10z"/>
</g>
</svg>
